<?xml version="1.0" standalone="no"?>
<!DOCTYPE svg PUBLIC "-//W3C//DTD SVG 20010904//EN"
 "http://www.w3.org/TR/2001/REC-SVG-20010904/DTD/svg10.dtd">
<svg version="1.0" xmlns="http://www.w3.org/2000/svg"
 width="512.000000pt" height="512.000000pt" viewBox="0 0 512.000000 512.000000"
 preserveAspectRatio="xMidYMid meet">

<g transform="translate(0.000000,512.000000) scale(0.100000,-0.100000)"
fill="#000000" stroke="none">
<path d="M632 4979 c-250 -33 -450 -171 -553 -383 -80 -164 -74 -10 -74 -2036
0 -1726 1 -1809 19 -1885 57 -247 210 -420 441 -502 l80 -28 2010 0 c1936 0
2012 1 2065 19 287 97 453 314 490 641 8 72 10 584 8 1830 -4 1939 2 1775 -78
1940 -92 190 -260 329 -467 388 l-78 22 -1900 1 c-1045 1 -1928 -2 -1963 -7z
m3973 -42 c225 -79 383 -237 462 -462 l28 -80 3 -1438 2 -1438 -77 -73 c-215
-202 -374 -312 -628 -437 -673 -330 -1388 -377 -2130 -139 -136 44 -190 40
-440 -33 -348 -101 -534 -128 -750 -108 -134 13 -177 22 -182 38 -2 6 36 38
84 72 241 165 376 323 390 456 7 69 -7 95 -127 224 -478 516 -680 1094 -605
1734 31 267 85 457 195 682 193 399 501 736 892 977 l93 57 1355 -2 1355 -2
80 -28z m-3640 -4237 c21 -22 37 -40 34 -40 -3 0 -23 18 -44 40 -21 22 -37 40
-34 40 3 0 23 -18 44 -40z m135 -125 c35 -36 62 -65 59 -65 -2 0 -34 29 -69
65 -35 36 -62 65 -59 65 2 0 34 -29 69 -65z m175 -165 c38 -38 67 -70 64 -70
-2 0 -36 32 -74 70 -38 39 -67 70 -64 70 2 0 36 -31 74 -70z m165 -155 c35
-36 62 -65 59 -65 -2 0 -34 29 -69 65 -35 36 -62 65 -59 65 2 0 34 -29 69 -65z"/>
<path d="M3478 3664 c-15 -8 -36 -29 -45 -47 -16 -29 -18 -78 -21 -562 -4
-579 -1 -613 48 -660 58 -56 162 -39 205 35 19 34 20 50 20 595 0 517 -1 563
-18 592 -9 18 -31 39 -47 48 -37 19 -107 19 -142 -1z"/>
<path d="M1545 3581 c-55 -3 -110 -12 -122 -19 -26 -15 -53 -61 -53 -92 0 -39
32 -92 64 -105 25 -11 338 -26 494 -25 6 0 12 -4 12 -9 0 -5 -126 -170 -281
-366 -154 -197 -287 -372 -295 -391 -19 -45 -18 -70 6 -120 38 -77 45 -79 440
-82 427 -4 463 -1 507 43 26 26 33 41 33 73 0 58 -15 89 -52 112 -31 19 -51
20 -300 20 -156 0 -268 4 -268 9 0 5 117 157 259 338 143 180 274 351 291 380
58 96 50 177 -21 214 -35 17 -65 20 -326 23 -159 2 -333 1 -388 -3z"/>
<path d="M2698 3299 c-112 -26 -242 -126 -296 -227 -42 -78 -53 -130 -53 -231
0 -268 128 -445 355 -491 95 -19 190 1 263 56 41 31 48 30 89 -6 19 -16 46
-33 59 -36 40 -10 93 5 127 35 28 24 33 37 39 97 10 89 10 568 0 656 -8 78
-32 112 -93 130 -50 15 -104 -1 -142 -41 l-29 -30 -45 31 c-83 57 -185 78
-274 57z m211 -270 c65 -36 101 -109 101 -205 0 -133 -80 -227 -195 -227 -61
0 -103 20 -143 69 -92 111 -53 325 68 373 44 17 129 13 169 -10z"/>
<path d="M4108 3281 c-160 -51 -266 -173 -303 -346 -50 -237 39 -447 228 -540
114 -56 216 -68 335 -40 214 51 343 205 359 430 17 246 -115 441 -340 501 -74
19 -209 17 -279 -5z m260 -260 c38 -27 68 -81 83 -150 8 -40 7 -63 -5 -112
-20 -76 -46 -114 -99 -140 -83 -43 -185 -20 -238 53 -81 113 -49 300 61 360
50 27 153 22 198 -11z"/>
</g>
</svg>
